<svg width="18" height="19" viewBox="0 0 18 19" fill="none" xmlns="http://www.w3.org/2000/svg">
<path d="M6 10.625H12M6 6.875H9" stroke="#607085" stroke-width="1.125" stroke-linecap="round" stroke-linejoin="round"/>
<path d="M4.57411 14.75C3.59903 14.6541 2.86856 14.3612 2.37868 13.8713C1.5 12.9927 1.5 11.5784 1.5 8.75V8.375C1.5 5.54657 1.5 4.13236 2.37868 3.25368C3.25736 2.375 4.67157 2.375 7.5 2.375H10.5C13.3284 2.375 14.7427 2.375 15.6213 3.25368C16.5 4.13236 16.5 5.54657 16.5 8.375V8.75C16.5 11.5784 16.5 12.9927 15.6213 13.8713C14.7427 14.75 13.3284 14.75 10.5 14.75C10.0796 14.7594 9.74482 14.7913 9.41595 14.8663C8.51715 15.0732 7.68487 15.5331 6.8624 15.9342C5.69047 16.5056 5.1045 16.7914 4.73677 16.5238C4.03327 15.9999 4.72091 14.3764 4.875 13.625" stroke="#607085" stroke-width="1.125" stroke-linecap="round"/>
</svg>
