<svg width="18" height="19" viewBox="0 0 18 19" fill="none" xmlns="http://www.w3.org/2000/svg">
<path d="M2 13.5C2 12.3447 2 11.767 2.26005 11.3426C2.40555 11.1052 2.6052 10.9055 2.84265 10.76C3.267 10.5 3.84467 10.5 5 10.5C6.15533 10.5 6.73299 10.5 7.15735 10.76C7.3948 10.9055 7.59444 11.1052 7.73995 11.3426C8 11.767 8 12.3447 8 13.5C8 14.6553 8 15.233 7.73995 15.6574C7.59444 15.8948 7.3948 16.0945 7.15735 16.24C6.73299 16.5 6.15533 16.5 5 16.5C3.84467 16.5 3.267 16.5 2.84265 16.24C2.6052 16.0945 2.40555 15.8948 2.26005 15.6574C2 15.233 2 14.6553 2 13.5Z" stroke="#1863D3" stroke-width="1.125"/>
<path d="M10 13.5C10 12.3447 10 11.767 10.26 11.3426C10.4055 11.1052 10.6052 10.9055 10.8426 10.76C11.267 10.5 11.8447 10.5 13 10.5C14.1553 10.5 14.733 10.5 15.1574 10.76C15.3948 10.9055 15.5945 11.1052 15.74 11.3426C16 11.767 16 12.3447 16 13.5C16 14.6553 16 15.233 15.74 15.6574C15.5945 15.8948 15.3948 16.0945 15.1574 16.24C14.733 16.5 14.1553 16.5 13 16.5C11.8447 16.5 11.267 16.5 10.8426 16.24C10.6052 16.0945 10.4055 15.8948 10.26 15.6574C10 15.233 10 14.6553 10 13.5Z" stroke="#1863D3" stroke-width="1.125"/>
<path d="M2 5.5C2 4.34467 2 3.767 2.26005 3.34265C2.40555 3.1052 2.6052 2.90555 2.84265 2.76005C3.267 2.5 3.84467 2.5 5 2.5C6.15533 2.5 6.73299 2.5 7.15735 2.76005C7.3948 2.90555 7.59444 3.1052 7.73995 3.34265C8 3.767 8 4.34467 8 5.5C8 6.65533 8 7.23299 7.73995 7.65735C7.59444 7.8948 7.3948 8.09444 7.15735 8.23995C6.73299 8.5 6.15533 8.5 5 8.5C3.84467 8.5 3.267 8.5 2.84265 8.23995C2.6052 8.09444 2.40555 7.8948 2.26005 7.65735C2 7.23299 2 6.65533 2 5.5Z" stroke="#1863D3" stroke-width="1.125"/>
<path d="M10 5.5C10 4.34467 10 3.767 10.26 3.34265C10.4055 3.1052 10.6052 2.90555 10.8426 2.76005C11.267 2.5 11.8447 2.5 13 2.5C14.1553 2.5 14.733 2.5 15.1574 2.76005C15.3948 2.90555 15.5945 3.1052 15.74 3.34265C16 3.767 16 4.34467 16 5.5C16 6.65533 16 7.23299 15.74 7.65735C15.5945 7.8948 15.3948 8.09444 15.1574 8.23995C14.733 8.5 14.1553 8.5 13 8.5C11.8447 8.5 11.267 8.5 10.8426 8.23995C10.6052 8.09444 10.4055 7.8948 10.26 7.65735C10 7.23299 10 6.65533 10 5.5Z" stroke="#1863D3" stroke-width="1.125"/>
</svg>
