<svg width="24" height="24" viewBox="0 0 24 24" fill="none" xmlns="http://www.w3.org/2000/svg">
<path d="M19.7083 11.9999H9.41249M5.77832 11.9999H4.29166M5.77832 11.9999C5.77832 11.5181 5.96972 11.056 6.31041 10.7153C6.6511 10.3746 7.11318 10.1832 7.59499 10.1832C8.0768 10.1832 8.53888 10.3746 8.87957 10.7153C9.22026 11.056 9.41166 11.5181 9.41166 11.9999C9.41166 12.4817 9.22026 12.9438 8.87957 13.2845C8.53888 13.6252 8.0768 13.8166 7.59499 13.8166C7.11318 13.8166 6.6511 13.6252 6.31041 13.2845C5.96972 12.9438 5.77832 12.4817 5.77832 11.9999ZM19.7083 17.5057H14.9183M14.9183 17.5057C14.9183 17.9877 14.7265 18.4503 14.3857 18.791C14.0449 19.1318 13.5827 19.3232 13.1008 19.3232C12.619 19.3232 12.1569 19.131 11.8162 18.7903C11.4756 18.4496 11.2842 17.9876 11.2842 17.5057M14.9183 17.5057C14.9183 17.0238 14.7265 16.5621 14.3857 16.2213C14.0449 15.8805 13.5827 15.6891 13.1008 15.6891C12.619 15.6891 12.1569 15.8805 11.8162 16.2212C11.4756 16.5619 11.2842 17.0239 11.2842 17.5057M11.2842 17.5057H4.29166M19.7083 6.49408H17.1208M13.4867 6.49408H4.29166M13.4867 6.49408C13.4867 6.01227 13.6781 5.55019 14.0187 5.2095C14.3594 4.86881 14.8215 4.67741 15.3033 4.67741C15.5419 4.67741 15.7781 4.7244 15.9985 4.8157C16.2189 4.90699 16.4192 5.04081 16.5879 5.2095C16.7566 5.37819 16.8904 5.57846 16.9817 5.79887C17.073 6.01928 17.12 6.25551 17.12 6.49408C17.12 6.73264 17.073 6.96888 16.9817 7.18929C16.8904 7.40969 16.7566 7.60996 16.5879 7.77865C16.4192 7.94735 16.2189 8.08116 15.9985 8.17246C15.7781 8.26375 15.5419 8.31074 15.3033 8.31074C14.8215 8.31074 14.3594 8.11934 14.0187 7.77865C13.6781 7.43796 13.4867 6.97589 13.4867 6.49408Z" stroke="#172230" stroke-width="1.25" stroke-miterlimit="10" stroke-linecap="round"/>
</svg>
