<svg width="18" height="19" viewBox="0 0 18 19" fill="none" xmlns="http://www.w3.org/2000/svg">
<path d="M9 2C13.1428 2 16.5 5.35833 16.5 9.5C16.5 13.6417 13.1428 17 9 17" stroke="#1863D3" stroke-width="1.125" stroke-linecap="round" stroke-linejoin="round"/>
<path d="M6.75 16.625C5.85872 16.3215 5.02149 15.883 4.29227 15.3097M4.29227 3.69039C5.02149 3.12544 5.85872 2.67855 6.75 2.375M1.5 8.18458C1.66205 7.3161 1.99514 6.4729 2.47229 5.70559M1.5 10.8154C1.66205 11.6839 1.99514 12.5271 2.47229 13.2944" stroke="#607085" stroke-width="1.125" stroke-linecap="round" stroke-linejoin="round"/>
<path d="M6 12.875C7.55445 11.2265 10.4288 11.149 12 12.875M10.6634 7.8125C10.6634 8.74445 9.91613 9.5 8.99438 9.5C8.07255 9.5 7.32531 8.74445 7.32531 7.8125C7.32531 6.88052 8.07255 6.125 8.99438 6.125C9.91613 6.125 10.6634 6.88052 10.6634 7.8125Z" stroke="#607085" stroke-width="1.125" stroke-linecap="round"/>
</svg>
