<svg width="18" height="19" viewBox="0 0 18 19" fill="none" xmlns="http://www.w3.org/2000/svg">
<path d="M10.8749 14.75H9.37485C7.25354 14.75 6.19289 14.75 5.53388 14.091C4.87487 13.4319 4.87487 12.3713 4.87487 10.25V6.5C4.87487 4.37868 4.87487 3.31802 5.53388 2.65901C6.19289 2 7.25354 2 9.37485 2H10.3823C10.9954 2 11.3019 2 11.5776 2.11418C11.8532 2.22836 12.07 2.44513 12.5036 2.87868L14.4962 4.87132C14.9297 5.30486 15.1465 5.52164 15.2607 5.79729C15.3749 6.07295 15.3749 6.37951 15.3749 6.99264V10.25C15.3749 12.3713 15.3749 13.4319 14.7158 14.091C14.0569 14.75 12.9962 14.75 10.8749 14.75Z" stroke="#607085" stroke-width="1.125" stroke-linecap="round" stroke-linejoin="round"/>
<path d="M11.2498 2.375V3.125C11.2498 4.53921 11.2498 5.24632 11.6892 5.68566C12.1285 6.125 12.8356 6.125 14.2498 6.125H14.9998" stroke="#607085" stroke-width="1.125" stroke-linecap="round" stroke-linejoin="round"/>
<path d="M2.62457 6.5V12.5C2.62457 14.6214 2.62457 15.682 3.28358 16.341C3.94258 17 5.00324 17 7.12456 17H10.8748" stroke="#607085" stroke-width="1.125" stroke-linecap="round" stroke-linejoin="round"/>
<path d="M7.5 8.75H10.5M7.5 11.75H12.75" stroke="#607085" stroke-width="1.125" stroke-linecap="round" stroke-linejoin="round"/>
</svg>
