<svg width="18" height="19" viewBox="0 0 18 19" fill="none" xmlns="http://www.w3.org/2000/svg">
<path d="M11.625 9.49902C11.625 10.9488 10.4497 12.124 9 12.124C7.55025 12.124 6.375 10.9488 6.375 9.49902C6.375 8.04927 7.55025 6.87402 9 6.87402C10.4497 6.87402 11.625 8.04927 11.625 9.49902Z" stroke="#607085" stroke-width="1.125"/>
<path d="M15.7582 11.0721C16.1497 10.9666 16.3454 10.9138 16.4227 10.8128C16.5 10.712 16.5 10.5496 16.5 10.2249V8.77465C16.5 8.44997 16.5 8.28759 16.4227 8.18672C16.3453 8.08577 16.1497 8.03297 15.7582 7.92743C14.2954 7.53294 13.3799 6.00363 13.7575 4.5504C13.8613 4.15074 13.9132 3.95091 13.8636 3.83371C13.814 3.71651 13.6718 3.63575 13.3873 3.47421L12.0937 2.73979C11.8146 2.58129 11.675 2.50203 11.5498 2.51891C11.4244 2.53578 11.2831 2.67679 11.0004 2.95879C9.906 4.0506 8.0952 4.05056 7.00075 2.95872C6.71807 2.67672 6.57673 2.53572 6.45145 2.51883C6.32617 2.50196 6.18658 2.58121 5.9074 2.73972L4.61388 3.47415C4.3294 3.63567 4.18715 3.71643 4.13758 3.83361C4.08801 3.95079 4.1399 4.15065 4.24369 4.55035C4.62103 6.00362 3.70479 7.53297 2.24177 7.92744C1.85034 8.03297 1.65463 8.08577 1.57731 8.18664C1.5 8.28759 1.5 8.44997 1.5 8.77465V10.2249C1.5 10.5496 1.5 10.712 1.57731 10.8128C1.65461 10.9138 1.85033 10.9666 2.24177 11.0721C3.70455 11.4666 4.62006 12.9959 4.24254 14.4491C4.13872 14.8488 4.0868 15.0486 4.13637 15.1658C4.18594 15.2831 4.32819 15.3638 4.61269 15.5253L5.90621 16.2598C6.18541 16.4183 6.325 16.4975 6.4503 16.4807C6.57559 16.4638 6.71691 16.3227 6.99953 16.0407C8.09452 14.948 9.9066 14.948 11.0017 16.0406C11.2843 16.3227 11.4256 16.4637 11.5509 16.4806C11.6761 16.4975 11.8158 16.4182 12.0949 16.2597L13.3885 15.5252C13.673 15.3638 13.8153 15.283 13.8648 15.1658C13.9144 15.0485 13.8625 14.8487 13.7586 14.4491C13.3809 12.9959 14.2957 11.4667 15.7582 11.0721Z" stroke="#607085" stroke-width="1.125" stroke-linecap="round"/>
</svg>
