<svg width="18" height="19" viewBox="0 0 18 19" fill="none" xmlns="http://www.w3.org/2000/svg">
<path d="M11.25 6.49921C11.25 7.74184 10.2427 8.74921 9 8.74921C7.75732 8.74921 6.75 7.74184 6.75 6.49921C6.75 5.25657 7.75732 4.24921 9 4.24921C10.2427 4.24921 11.25 5.25657 11.25 6.49921Z" stroke="#607085" stroke-width="1.125" stroke-linecap="round" stroke-linejoin="round"/>
<path d="M12 3.5C13.2426 3.5 14.25 4.50736 14.25 5.75C14.25 6.66732 13.701 7.45642 12.9137 7.80672" stroke="#607085" stroke-width="1.125" stroke-linecap="round" stroke-linejoin="round"/>
<path d="M10.2857 10.9992H7.71429C5.93908 10.9992 4.5 12.4383 4.5 14.2135C4.5 14.9236 5.07563 15.4992 5.78571 15.4992H12.2143C12.9244 15.4992 13.5 14.9236 13.5 14.2135C13.5 12.4383 12.0609 10.9992 10.2857 10.9992Z" stroke="#607085" stroke-width="1.125" stroke-linecap="round" stroke-linejoin="round"/>
<path d="M13.2871 10.25C15.0623 10.25 16.5014 11.6891 16.5014 13.4643C16.5014 14.1744 15.9258 14.75 15.2157 14.75" stroke="#607085" stroke-width="1.125" stroke-linecap="round" stroke-linejoin="round"/>
<path d="M6.00195 3.5C4.75932 3.5 3.75195 4.50736 3.75195 5.75C3.75195 6.66732 4.3009 7.45642 5.08821 7.80672" stroke="#607085" stroke-width="1.125" stroke-linecap="round" stroke-linejoin="round"/>
<path d="M2.78767 14.75C2.07759 14.75 1.50195 14.1744 1.50195 13.4643C1.50195 11.6891 2.94104 10.25 4.71624 10.25" stroke="#607085" stroke-width="1.125" stroke-linecap="round" stroke-linejoin="round"/>
</svg>
