<svg width="18" height="19" viewBox="0 0 18 19" fill="none" xmlns="http://www.w3.org/2000/svg">
<path d="M15.7498 11.1877V10.0627C15.746 8.66771 15.3118 7.30791 14.5064 6.16891C13.701 5.02992 12.5637 4.16726 11.2498 3.6987V3.31268C11.2498 3.01431 11.1313 2.72817 10.9203 2.51719C10.7093 2.30621 10.4232 2.18768 10.1248 2.18768H7.8748C7.57643 2.18768 7.29029 2.30621 7.07931 2.51719C6.86833 2.72817 6.7498 3.01431 6.7498 3.31268V3.6987C5.43587 4.16726 4.29858 5.02992 3.49319 6.16891C2.68781 7.30791 2.25358 8.66771 2.2498 10.0627V11.1877C1.95143 11.1877 1.66528 11.3062 1.45431 11.5172C1.24333 11.7282 1.1248 12.0143 1.1248 12.3127V14.0002C1.1248 14.2986 1.24333 14.5847 1.45431 14.7957C1.66528 15.0067 1.95143 15.1252 2.2498 15.1252H15.7498C16.0482 15.1252 16.3343 15.0067 16.5453 14.7957C16.7563 14.5847 16.8748 14.2986 16.8748 14.0002V12.3127C16.8748 12.0143 16.7563 11.7282 16.5453 11.5172C16.3343 11.3062 16.0482 11.1877 15.7498 11.1877ZM14.6248 10.0627V11.1877H11.2498V4.90667C12.2511 5.34716 13.103 6.06883 13.7021 6.98408C14.3012 7.89932 14.6217 8.9688 14.6248 10.0627ZM10.1248 3.31268V11.1877H7.8748V3.31268H10.1248ZM3.3748 10.0627C3.37789 8.9688 3.69843 7.89932 4.29753 6.98408C4.89663 6.06883 5.74852 5.34716 6.7498 4.90667V11.1877H3.3748V10.0627ZM15.7498 14.0002H2.2498V12.3127H15.7498V14.0002Z" fill="#607085"/>
</svg>
