<svg width="32" height="32" viewBox="0 0 32 32" fill="none" xmlns="http://www.w3.org/2000/svg">
<path d="M26.6673 14.0003C26.3137 14.0003 25.9746 14.1408 25.7245 14.3908C25.4745 14.6409 25.334 14.98 25.334 15.3336V24.6669C25.334 25.0206 25.1935 25.3597 24.9435 25.6098C24.6934 25.8598 24.3543 26.0003 24.0007 26.0003H5.33398C4.98036 26.0003 4.64122 25.8598 4.39118 25.6098C4.14113 25.3597 4.00065 25.0206 4.00065 24.6669V14.0003C4.00065 13.6467 4.14113 13.3075 4.39118 13.0575C4.64122 12.8074 4.98036 12.667 5.33398 12.667H8.00065C8.29141 12.6821 8.57914 12.6017 8.8199 12.438C9.06066 12.2743 9.24121 12.0363 9.33399 11.7603L10.054 9.57362C10.1434 9.30879 10.3138 9.07877 10.5411 8.91607C10.7684 8.75338 11.0411 8.66623 11.3207 8.66695H18.6673C19.0209 8.66695 19.3601 8.52647 19.6101 8.27643C19.8602 8.02638 20.0007 7.68724 20.0007 7.33362C20.0007 6.98 19.8602 6.64086 19.6101 6.39081C19.3601 6.14076 19.0209 6.00028 18.6673 6.00028H11.254C10.416 6.00185 9.59976 6.26653 8.92034 6.75696C8.24092 7.24739 7.73266 7.9388 7.46732 8.73362L7.04065 10.067H5.33398C4.27312 10.067 3.2557 10.4884 2.50556 11.2385C1.75541 11.9887 1.33398 13.0061 1.33398 14.0669V24.7336C1.33398 25.7945 1.75541 26.8119 2.50556 27.562C3.2557 28.3122 4.27312 28.7336 5.33398 28.7336H24.0007C25.0615 28.7336 26.0789 28.3122 26.8291 27.562C27.5792 26.8119 28.0007 25.7945 28.0007 24.7336V15.4003C28.0097 15.2197 27.9819 15.0391 27.919 14.8695C27.856 14.7 27.7592 14.545 27.6345 14.4141C27.5098 14.2831 27.3597 14.1789 27.1934 14.1078C27.0272 14.0366 26.8482 14.0001 26.6673 14.0003ZM14.6673 12.667C13.6125 12.667 12.5813 12.9797 11.7043 13.5658C10.8272 14.1518 10.1436 14.9848 9.73996 15.9593C9.33629 16.9338 9.23068 18.0062 9.43646 19.0408C9.64225 20.0753 10.1502 21.0256 10.8961 21.7715C11.642 22.5174 12.5923 23.0253 13.6268 23.2311C14.6614 23.4369 15.7338 23.3313 16.7083 22.9276C17.6828 22.524 18.5158 21.8404 19.1018 20.9633C19.6879 20.0863 20.0007 19.0551 20.0007 18.0003C20.0007 16.5858 19.4388 15.2292 18.4386 14.229C17.4384 13.2289 16.0818 12.667 14.6673 12.667ZM14.6673 20.6669C14.1399 20.6669 13.6243 20.5106 13.1858 20.2175C12.7473 19.9245 12.4055 19.508 12.2036 19.0208C12.0018 18.5335 11.949 17.9973 12.0519 17.48C12.1548 16.9628 12.4088 16.4876 12.7817 16.1147C13.1546 15.7417 13.6298 15.4877 14.1471 15.3849C14.6644 15.282 15.2005 15.3348 15.6878 15.5366C16.1751 15.7384 16.5916 16.0802 16.8846 16.5188C17.1776 16.9573 17.334 17.4729 17.334 18.0003C17.334 18.7075 17.053 19.3858 16.5529 19.8859C16.0528 20.386 15.3746 20.6669 14.6673 20.6669ZM29.334 6.00028H28.0007V4.66695C28.0007 4.31333 27.8602 3.97419 27.6101 3.72414C27.3601 3.47409 27.0209 3.33362 26.6673 3.33362C26.3137 3.33362 25.9746 3.47409 25.7245 3.72414C25.4745 3.97419 25.334 4.31333 25.334 4.66695V6.00028H24.0007C23.647 6.00028 23.3079 6.14076 23.0578 6.39081C22.8078 6.64086 22.6673 6.98 22.6673 7.33362C22.6673 7.68724 22.8078 8.02638 23.0578 8.27643C23.3079 8.52647 23.647 8.66695 24.0007 8.66695H25.334V10.0003C25.334 10.3539 25.4745 10.693 25.7245 10.9431C25.9746 11.1931 26.3137 11.3336 26.6673 11.3336C27.0209 11.3336 27.3601 11.1931 27.6101 10.9431C27.8602 10.693 28.0007 10.3539 28.0007 10.0003V8.66695H29.334C29.6876 8.66695 30.0267 8.52647 30.2768 8.27643C30.5268 8.02638 30.6673 7.68724 30.6673 7.33362C30.6673 6.98 30.5268 6.64086 30.2768 6.39081C30.0267 6.14076 29.6876 6.00028 29.334 6.00028Z" fill="#1863D3"/>
</svg>
