<svg width="14" height="14" viewBox="0 0 14 14" fill="none" xmlns="http://www.w3.org/2000/svg">
<path d="M2.33398 6.41667L2.33398 12.25" stroke="#172230" stroke-width="0.875" stroke-linecap="round" stroke-linejoin="round"/>
<path d="M11.084 7.58333V12.25" stroke="#172230" stroke-width="0.875" stroke-linecap="round" stroke-linejoin="round"/>
<path d="M11.084 1.7526V4.08594" stroke="#172230" stroke-width="0.875" stroke-linecap="round" stroke-linejoin="round"/>
<path d="M6.70898 1.7526V7.58594" stroke="#172230" stroke-width="0.875" stroke-linecap="round" stroke-linejoin="round"/>
<path d="M2.33398 1.74544V2.91211" stroke="#172230" stroke-width="0.875" stroke-linecap="round" stroke-linejoin="round"/>
<path d="M6.70898 11.0833V12.25" stroke="#172230" stroke-width="0.875" stroke-linecap="round" stroke-linejoin="round"/>
<path d="M1.16602 5.53711C1.16602 5.26533 1.16602 5.12942 1.21042 5.0222C1.26962 4.87928 1.38318 4.76571 1.52612 4.7065C1.63332 4.66211 1.76922 4.66211 2.04102 4.66211H2.62435C2.89615 4.66211 3.03205 4.66211 3.13925 4.7065C3.28218 4.76571 3.39574 4.87928 3.45495 5.0222C3.49935 5.12942 3.49935 5.26533 3.49935 5.53711C3.49935 5.80888 3.49935 5.9448 3.45495 6.05202C3.39574 6.19493 3.28218 6.30851 3.13925 6.36772C3.03205 6.41211 2.89615 6.41211 2.62435 6.41211H2.04102C1.76922 6.41211 1.63332 6.41211 1.52612 6.36772C1.38318 6.30851 1.26962 6.19493 1.21042 6.05202C1.16602 5.9448 1.16602 5.80888 1.16602 5.53711Z" fill="#172230" stroke="#172230" stroke-width="0.875" stroke-linecap="round" stroke-linejoin="round"/>
<path d="M9.91602 6.71094C9.91602 6.43916 9.91602 6.30325 9.96041 6.19603C10.0196 6.05311 10.1332 5.93954 10.2761 5.88033C10.3833 5.83594 10.5192 5.83594 10.791 5.83594H11.3743C11.6461 5.83594 11.782 5.83594 11.8893 5.88033C12.0322 5.93954 12.1457 6.05311 12.205 6.19603C12.2493 6.30325 12.2493 6.43916 12.2493 6.71094C12.2493 6.98271 12.2493 7.11863 12.205 7.22585C12.1457 7.36876 12.0322 7.48234 11.8893 7.54155C11.782 7.58594 11.6461 7.58594 11.3743 7.58594H10.791C10.5192 7.58594 10.3833 7.58594 10.2761 7.54155C10.1332 7.48234 10.0196 7.36876 9.96041 7.22585C9.91602 7.11863 9.91602 6.98271 9.91602 6.71094Z" fill="#172230" stroke="#172230" stroke-width="0.875" stroke-linecap="round" stroke-linejoin="round"/>
<path d="M5.54102 8.46094C5.54102 8.18914 5.54102 8.05325 5.58542 7.94603C5.64462 7.80311 5.75818 7.68954 5.90111 7.63033C6.00832 7.58594 6.14424 7.58594 6.41602 7.58594H6.99935C7.27112 7.58594 7.40704 7.58594 7.51426 7.63033C7.65717 7.68954 7.77075 7.80311 7.82996 7.94603C7.87435 8.05325 7.87435 8.18914 7.87435 8.46094C7.87435 8.73274 7.87435 8.86863 7.82996 8.97583C7.77075 9.11877 7.65717 9.23233 7.51426 9.29153C7.40704 9.33594 7.27112 9.33594 6.99935 9.33594H6.41602C6.14424 9.33594 6.00832 9.33594 5.90111 9.29153C5.75818 9.23233 5.64462 9.11877 5.58542 8.97583C5.54102 8.86863 5.54102 8.73274 5.54102 8.46094Z" fill="#172230" stroke="#172230" stroke-width="0.875" stroke-linecap="round" stroke-linejoin="round"/>
</svg>
